<svg xmlns="http://www.w3.org/2000/svg" width="96" height="96" viewBox="0 0 96 96">
  <defs><linearGradient id="g" x1="0" y1="0" x2="1" y2="1"><stop offset="0%" stop-color="#6366f1"/><stop offset="100%" stop-color="#22d3ee"/></linearGradient></defs>
  <rect rx="16" ry="16" width="96" height="96" fill="url(#g)"/>
  <path d="M28 48a20 20 0 0 1 20-20h6v8h-6a12 12 0 1 0 0 24h6v8h-6A 20 20 0 0 1 28 48Z" fill="#fff" opacity="0.9"/>
  <path d="M48 28a20 20 0 0 1 20 20 20 20 0 0 1-20 20h-6v-8h6a12 12 0 1 0 0-24h-6v-8h6z" fill="#fff"/>
</svg>
